<svg width="844" height="474" fill="none" xmlns="http://www.w3.org/2000/svg"><g clip-path="url(#a)"><path fill="url(#b)" d="M0 0h844v474H0z"/><path fill-rule="evenodd" clip-rule="evenodd" d="M570.19-27.465a2.1 2.1 0 0 0-2.1 0L444.225 44.048a2.1 2.1 0 0 0 0 3.639l120.763 69.723-120.763 69.722a2.1 2.1 0 0 0 0 3.639l120.754 69.717-120.754 69.717a2.1 2.1 0 0 0 0 3.639l120.773 69.728-120.773 69.729a2.099 2.099 0 0 0 0 3.638l120.769 69.726-120.769 69.726a2.1 2.1 0 0 0 0 3.639l120.764 69.722-120.764 69.723a2.1 2.1 0 0 0 0 3.639l120.765 69.724-120.765 69.723a2.102 2.102 0 0 0 0 3.639l120.762 69.722-120.762 69.718c-.65.38-1.05 1.07-1.05 1.82s.4 1.45 1.05 1.82l123.865 71.52c.65.37 1.45.37 2.1 0l122.659-70.82 122.659 70.82c.65.37 1.451.37 2.101 0l122.66-70.82 122.661 70.82c.65.37 1.45.37 2.1 0l122.66-70.82 122.66 70.82c.65.37 1.45.37 2.1 0l122.66-70.82 122.66 70.82c.65.37 1.45.37 2.1 0l122.66-70.82 122.66 70.82c.65.37 1.45.37 2.1 0l122.66-70.82 122.66 70.82c.65.37 1.45.37 2.1 0l122.66-70.82 122.66 70.82c.65.37 1.45.37 2.1 0l123.86-71.52c.65-.37 1.05-1.07 1.05-1.82s-.4-1.44-1.05-1.82l-61.93-35.75-58.83-33.968 120.76-69.722a2.1 2.1 0 0 0 0-3.639l-61.93-35.756-58.83-33.967 120.76-69.724a2.1 2.1 0 0 0 0-3.639l-61.93-35.757-58.83-33.966 120.76-69.722a2.102 2.102 0 0 0 0-3.639l-61.93-35.757-58.84-33.969 120.77-69.726a2.099 2.099 0 0 0 0-3.638l-61.93-35.757-58.84-33.972 120.77-69.728a2.1 2.1 0 0 0 0-3.639l-61.93-35.757-58.82-33.96 120.75-69.717a2.1 2.1 0 0 0 0-3.639l-61.93-35.756-58.83-33.966 120.76-69.723a2.1 2.1 0 0 0 0-3.639l-61.93-35.757-61.93-35.756a2.1 2.1 0 0 0-2.1 0l-122.66 70.817-60.73-35.06-61.93-35.757a2.1 2.1 0 0 0-2.1 0l-122.66 70.817-60.73-35.06-61.93-35.757a2.1 2.1 0 0 0-2.1 0l-122.66 70.817-60.73-35.06-61.93-35.757a2.1 2.1 0 0 0-2.1 0l-122.66 70.817-60.73-35.06-61.93-35.757a2.1 2.1 0 0 0-2.1 0l-122.66 70.817-60.73-35.06-61.93-35.757a2.1 2.1 0 0 0-2.1 0L940.269 43.352l-60.728-35.06-61.932-35.757a2.101 2.101 0 0 0-2.101 0L692.849 43.352l-60.726-35.06-61.933-35.757ZM2296.92 975.922l-119.55-69.026-119.56 69.026 58.83 33.968 60.73 35.06 119.55-69.028Zm-247.42 0-119.55 69.028-60.73-35.06-58.83-33.968 119.56-69.026 119.55 69.026Zm-247.42 0-119.55-69.026-119.56 69.026 58.83 33.968 60.73 35.06 119.55-69.028Zm-247.42 0-119.55 69.028-60.73-35.06-58.83-33.968 119.56-69.026 119.55 69.026Zm-247.42 0-119.55 69.028-60.73-35.06-58.83-33.968 119.56-69.026 119.55 69.026Zm-247.41 0-119.561-69.026-119.557 69.026 58.829 33.968 60.728 35.06 119.561-69.028Zm-247.425 0-119.556 69.028-60.726-35.06-58.829-33.968 119.555-69.026 119.556 69.026ZM2296.93 832.838l-119.56 69.028-60.73-35.061-58.83-33.967 119.56-69.028 119.56 69.028Zm-247.42 0-119.56-69.028-119.56 69.028 58.83 33.967 60.73 35.061 119.56-69.028Zm-247.42 0-119.56 69.027-60.73-35.06-58.83-33.967 119.56-69.028 119.56 69.028Zm-247.42 0-119.56-69.029-119.56 69.029 58.83 33.967 60.73 35.061 119.56-69.028Zm-247.42 0-119.56-69.028-119.56 69.028 58.83 33.967 60.73 35.06 119.56-69.027Zm-247.42 0-119.561 69.028-60.728-35.061-58.833-33.967 119.561-69.029 119.561 69.029Zm-247.421 0-119.56-69.028-119.559 69.028 58.833 33.967 60.726 35.06 119.56-69.027ZM2296.92 689.752l-119.55-69.027-119.56 69.027 58.83 33.966 60.73 35.061 119.55-69.027Zm-247.42 0-119.55 69.027-60.73-35.061-58.83-33.966 119.56-69.027 119.55 69.027Zm-247.42 0-119.55-69.026-119.56 69.026 58.83 33.966 60.73 35.061 119.55-69.027Zm-247.41 0-119.56 69.027-60.73-35.061-58.83-33.966 119.56-69.027 119.56 69.027Zm-247.42 0-119.56 69.027-60.73-35.061-58.83-33.966 119.56-69.026 119.56 69.026Zm-247.42 0-119.561-69.027-119.559 69.027 58.831 33.966 60.728 35.061 119.561-69.027Zm-247.423 0-119.558 69.027-60.726-35.061-58.831-33.966 119.557-69.026 119.558 69.026ZM2296.93 546.665l-119.56 69.03-60.73-35.061-58.84-33.969 119.57-69.03 119.56 69.03Zm-247.42 0-119.56-69.03-119.57 69.03 58.84 33.969 60.73 35.061 119.56-69.03Zm-247.42 0-119.56 69.03-60.73-35.061-58.84-33.969 119.57-69.03 119.56 69.03Zm-247.42 0-119.56-69.03-119.57 69.03 58.84 33.969 60.73 35.061 119.56-69.03Zm-247.42 0-119.56-69.03-119.56 69.03 58.83 33.969 60.73 35.061 119.56-69.03Zm-247.42 0-119.561 69.03-60.728-35.061-58.836-33.969 119.564-69.03 119.561 69.03Zm-247.418 0-119.563-69.03-119.563 69.03 58.837 33.969 60.726 35.061 119.563-69.03ZM2296.93 403.572l-119.56-69.032-119.57 69.032 58.84 33.972 60.73 35.061 119.56-69.033Zm-247.42 0-119.56 69.033-60.73-35.061-58.84-33.972 119.57-69.032 119.56 69.032Zm-247.42 0-119.56-69.032-119.57 69.032 58.84 33.972 60.73 35.061 119.56-69.033Zm-247.41 0-119.57 69.033-60.73-35.061-58.84-33.972 119.57-69.033 119.57 69.033Zm-247.42 0-119.57 69.033-60.73-35.061-58.84-33.972 119.57-69.032 119.57 69.032Zm-247.42 0-119.571-69.033L820.7 403.572l58.841 33.972 60.728 35.061 119.571-69.033Zm-247.423 0-119.568 69.033-60.726-35.061-58.841-33.972 119.567-69.032 119.568 69.032ZM2296.91 260.488l-119.54 69.021-60.73-35.061-58.82-33.96 119.55-69.021 119.54 69.021Zm-247.42 0-119.54-69.021-119.55 69.021 58.82 33.96 60.73 35.061 119.54-69.021Zm-247.42 0-119.54 69.021-60.73-35.061-58.82-33.96 119.55-69.021 119.54 69.021Zm-247.41 0-119.55-69.021-119.55 69.021 58.82 33.96 60.73 35.061 119.55-69.021Zm-247.42 0-119.55-69.021-119.55 69.021 58.82 33.96 60.73 35.061 119.55-69.021Zm-247.42 0-119.551 69.021-60.728-35.061-58.821-33.96 119.549-69.021 119.551 69.021Zm-247.423 0-119.548-69.021-119.547 69.021 58.821 33.96 60.726 35.061 119.548-69.021ZM2296.92 117.41l-119.55-69.027-119.56 69.027 58.83 33.966 60.73 35.06 119.55-69.026Zm-247.42 0-119.55 69.026-60.73-35.06-58.83-33.966 119.56-69.027 119.55 69.027Zm-247.41 0-119.56-69.027-119.56 69.027 58.83 33.966 60.73 35.06 119.56-69.026Zm-247.42 0-119.56 69.027-60.73-35.061-58.83-33.966 119.56-69.028 119.56 69.028Zm-247.42 0-119.56 69.026-60.73-35.06-58.83-33.966 119.56-69.027 119.56 69.027Zm-247.42 0L940.269 48.382 820.71 117.41l58.831 33.966 60.728 35.061 119.561-69.027Zm-247.423 0-119.558 69.026-60.726-35.06-58.831-33.966 119.557-69.027 119.558 69.027Zm-243.267-2.455L449.477 45.867 569.14-23.22l60.882 35.15 58.781 33.937-119.663 69.088Zm247.419 0L696.896 45.867 816.559-23.22l60.881 35.15 58.781 33.937-119.662 69.088Zm127.757-69.088 119.664 69.088 119.66-69.088-58.78-33.937-60.88-35.15-119.664 69.087Zm367.084 69.088-119.66-69.088L1311.4-23.22l60.88 35.15 58.78 33.937-119.66 69.088Zm127.76-69.088 119.66 69.088 119.66-69.088-58.78-33.937-60.88-35.15-119.66 69.087Zm247.41 0 119.67 69.088 119.66-69.088-58.78-33.937-60.88-35.15-119.67 69.087Zm367.09 69.088-119.67-69.088 119.67-69.087 60.88 35.15 58.78 33.937-119.66 69.088Zm127.75-69.088 119.67 69.088 119.66-69.088-58.78-33.937-60.88-35.15-119.67 69.087ZM569.14 258.04l-119.663-69.087 119.663-69.088 60.882 35.15 58.781 33.938-119.663 69.087Zm127.756-69.087 119.663 69.087 119.662-69.087-58.781-33.938-60.881-35.15-119.663 69.088Zm367.084 69.087-119.664-69.087 119.664-69.088 60.88 35.15 58.78 33.938-119.66 69.087Zm127.76-69.087 119.66 69.087 119.66-69.087-58.78-33.937-60.88-35.15-119.66 69.087Zm367.08 69.087-119.66-69.087 119.66-69.088 60.88 35.15 58.78 33.938-119.66 69.087Zm247.42 0-119.67-69.087 119.67-69.087 60.88 35.15 58.78 33.937-119.66 69.087Zm127.75-69.087 119.67 69.087 119.66-69.087-58.78-33.938-60.88-35.15-119.67 69.088Zm367.09 69.087-119.67-69.087 119.67-69.087 60.88 35.15 58.78 33.937-119.66 69.087ZM449.477 332.024l119.663 69.088 119.663-69.088-58.781-33.937-60.882-35.15-119.663 69.087Zm367.082 69.088-119.663-69.088 119.663-69.087 60.881 35.15 58.781 33.937-119.662 69.088Zm127.757-69.088 119.664 69.088 119.66-69.088-58.78-33.937-60.88-35.15-119.664 69.087Zm367.084 69.088-119.66-69.088 119.66-69.087 60.88 35.15 58.78 33.937-119.66 69.088Zm127.76-69.088 119.66 69.088 119.66-69.088-58.78-33.937-60.88-35.15-119.66 69.087Zm247.41 0 119.67 69.088 119.66-69.088-58.78-33.937-60.88-35.15-119.67 69.087Zm367.09 69.088-119.67-69.088 119.67-69.087 60.88 35.15 58.78 33.937-119.66 69.088Zm127.75-69.088 119.67 69.088 119.66-69.088-58.78-33.937-60.88-35.15-119.67 69.087ZM569.14 544.207 449.477 475.12l119.663-69.087 60.882 35.15 58.781 33.937-119.663 69.087Zm127.756-69.087 119.663 69.087 119.662-69.087-58.781-33.937-60.881-35.15-119.663 69.087Zm367.084 69.087L944.316 475.12l119.664-69.087 60.88 35.15 58.78 33.937-119.66 69.087Zm127.76-69.087 119.66 69.087 119.66-69.087-58.78-33.937-60.88-35.15-119.66 69.087Zm367.08 69.087-119.66-69.087 119.66-69.087 60.88 35.15 58.78 33.937-119.66 69.087Zm247.42 0-119.67-69.087 119.67-69.087 60.88 35.15 58.78 33.937-119.66 69.087Zm127.75-69.087 119.67 69.087 119.66-69.087-58.78-33.937-60.88-35.15-119.67 69.087Zm367.09 69.087-119.67-69.087 119.67-69.087 60.88 35.15 58.78 33.937-119.66 69.087ZM449.477 618.21l119.663 69.087 119.663-69.087-58.781-33.937-60.882-35.15-119.663 69.087Zm367.082 69.087L696.896 618.21l119.663-69.087 60.881 35.15 58.781 33.937-119.662 69.087Zm127.757-69.087 119.664 69.087 119.66-69.087-58.78-33.937-60.88-35.15-119.664 69.087Zm367.084 69.087-119.66-69.087 119.66-69.087 60.88 35.15 58.78 33.937-119.66 69.087Zm127.76-69.087 119.66 69.087 119.66-69.087-58.78-33.937-60.88-35.15-119.66 69.087Zm247.41 0 119.67 69.087 119.66-69.087-58.78-33.937-60.88-35.15-119.67 69.087Zm367.09 69.087-119.67-69.087 119.67-69.087 60.88 35.15 58.78 33.937-119.66 69.087Zm127.75-69.087 119.67 69.087 119.66-69.087-58.78-33.937-60.88-35.15-119.67 69.087ZM569.14 830.382l-119.663-69.088 119.663-69.087 60.882 35.15 58.781 33.937-119.663 69.088Zm127.756-69.088 119.663 69.088 119.662-69.088-58.781-33.937-60.881-35.15-119.663 69.087Zm367.084 69.088-119.664-69.088 119.664-69.087 60.88 35.15 58.78 33.937-119.66 69.088Zm127.76-69.088 119.66 69.088 119.66-69.088-58.78-33.937-60.88-35.15-119.66 69.087Zm367.08 69.088-119.66-69.088 119.66-69.087 60.88 35.15 58.78 33.937-119.66 69.088Zm247.42 0-119.67-69.088 119.67-69.087 60.88 35.15 58.78 33.937-119.66 69.088Zm127.75-69.088 119.67 69.088 119.66-69.088-58.78-33.937-60.88-35.15-119.67 69.087Zm367.09 69.088-119.67-69.088 119.67-69.087 60.88 35.15 58.78 33.937-119.66 69.088ZM449.477 904.381l119.663 69.087 119.663-69.087-58.781-33.937-60.882-35.15-119.663 69.087Zm367.082 69.087-119.663-69.087 119.663-69.087 60.881 35.15 58.781 33.937-119.662 69.087Zm127.757-69.087 119.664 69.087 119.66-69.087-58.78-33.937-60.88-35.15-119.664 69.087Zm367.084 69.087-119.66-69.087 119.66-69.087 60.88 35.15 58.78 33.937-119.66 69.087Zm127.76-69.087 119.66 69.087 119.66-69.087-58.78-33.937-60.88-35.15-119.66 69.087Zm247.41 0 119.67 69.087 119.66-69.087-58.78-33.937-60.88-35.15-119.67 69.087Zm367.09 69.087-119.67-69.087 119.67-69.087 60.88 35.15 58.78 33.937-119.66 69.087Zm127.75-69.087 119.67 69.087 119.66-69.087-58.78-33.937-60.88-35.15-119.67 69.087ZM569.14 1116.55l-119.663-69.09 119.663-69.084 60.882 35.154 58.781 33.93-119.663 69.09Zm127.756-69.09 119.663 69.09 119.662-69.09-58.781-33.93-60.881-35.154-119.663 69.084Zm367.084 69.09-119.664-69.09 119.664-69.084 60.88 35.154 58.78 33.93-119.66 69.09Zm127.76-69.09 119.66 69.09 119.66-69.09-58.78-33.93-60.88-35.154-119.66 69.084Zm367.08 69.09-119.66-69.09 119.66-69.084 60.88 35.154 58.78 33.93-119.66 69.09Zm247.42 0-119.67-69.09 119.67-69.084 60.88 35.154 58.78 33.93-119.66 69.09Zm127.75-69.09 119.67 69.09 119.66-69.09-58.78-33.93-60.88-35.154-119.67 69.084Zm367.09 69.09-119.67-69.09 119.67-69.084 60.88 35.154 58.78 33.93-119.66 69.09Z" fill="url(#c)"/><path fill-rule="evenodd" clip-rule="evenodd" d="M379.487 407.55a1.87 1.87 0 0 0-.594.107c.389.259.602.601.709.99.008.053.023.091.03.144.008.046.016.092.016.137.03.67-.176.754-.321 1.15-.221.51-.16 1.059.107 1.5a.904.904 0 0 0 .092.168c-.29-1.927 1.319-2.216 1.616-2.818.023-.525-.411-.875-.755-1.119a1.686 1.686 0 0 0-.9-.259Zm2.426.434c-.031.175-.008.13-.016.221-.007.061-.007.137-.015.198-.015.061-.03.122-.053.183a1.555 1.555 0 0 1-.061.182c-.031.061-.054.115-.084.176-.023.03-.038.061-.061.091l-.046.068a2.538 2.538 0 0 1-.114.153c-.046.045-.084.099-.138.137v.007c-.045.039-.091.084-.144.122-.161.122-.344.213-.511.328-.054.038-.107.068-.153.114a1.128 1.128 0 0 0-.145.122c-.053.045-.091.091-.137.144-.038.046-.084.099-.114.153a1.538 1.538 0 0 0-.107.16c-.031.061-.054.114-.084.175-.023.061-.046.114-.061.175-.023.068-.038.129-.054.19-.007.031-.007.069-.015.099-.007.031-.007.061-.015.092 0 .06-.008.129-.008.19 0 .046 0 .091.008.137a.87.87 0 0 0 .023.19c.007.061.023.122.038.183.023.061.038.122.061.183.015.038.038.076.053.106l-1.754-.677c-.297-.084-.587-.16-.884-.229l-.481-.114c-.457-.091-.923-.16-1.388-.205-.015 0-.023-.008-.038-.008a13.562 13.562 0 0 0-2.364-.031 14.759 14.759 0 0 0-2.425.381l-.343.092c-.115.045-.222.099-.328.144l-.252.114c-.015.008-.031.008-.038.016-.076.038-.145.068-.214.106a3.446 3.446 0 0 0-.29.145c-.053.023-.106.053-.152.076a.565.565 0 0 1-.069.038c-.068.038-.137.076-.198.114-.069.038-.13.076-.183.115-.053.038-.107.068-.153.106-.007.008-.015.008-.022.015a1.74 1.74 0 0 0-.145.107l-.016.015-.114.092c-.015.007-.031.022-.046.03-.038.031-.076.069-.114.099-.008.015-.023.023-.031.031-.045.045-.091.083-.137.129-.008 0-.008.008-.015.015a1.832 1.832 0 0 0-.137.13c-.008.007-.008.015-.016.015a1.701 1.701 0 0 0-.114.122c-.015.015-.038.03-.053.045a2.063 2.063 0 0 1-.13.137c-.008.016-.023.023-.031.038-.061.061-.114.122-.175.183l-.023.023a4.569 4.569 0 0 1-.389.373 5.605 5.605 0 0 1-.885.625 5.861 5.861 0 0 1-.976.411c-.32.068-.648.198-.93.221-.061 0-.13.015-.191.022l-.19.046-.183.069c-.061.022-.122.053-.184.083-.053.038-.114.069-.167.107a1.272 1.272 0 0 0-.153.129c-.053.038-.107.092-.152.137-.046.054-.092.099-.13.153-.038.061-.084.114-.114.175a1.186 1.186 0 0 0-.107.175c-.031.069-.061.129-.084.198a5.563 5.563 0 0 0-.069.198c-.015.061-.03.122-.038.183 0 .007-.007.015-.007.023-.016.068-.016.159-.023.205-.008.053-.016.099-.016.152 0 .031 0 .069.008.099a.965.965 0 0 0 .084.282v.008c.023.045.053.091.084.137.03.045.061.091.099.137.038.038.084.084.13.122.045.045.091.083.145.122.183.159.228.213.465.335.038.022.076.038.122.06.007 0 .015.008.023.008 0 .015 0 .023.007.038a1.7 1.7 0 0 0 .099.366c.023.045.039.091.061.137.008.015.016.03.023.038.031.061.061.114.092.167l.114.16c.038.046.084.099.13.145.046.046.091.084.145.129 0 0 .007.008.015.008a1.324 1.324 0 0 0 .305.206c.053.03.114.06.175.083.046.023.1.038.153.054.008.007.015.007.031.015l.099.023c-.023.411-.031.799.03.936.069.152.404-.312.74-.845-.046.525-.076 1.142 0 1.325.084.19.541-.404.938-1.058 5.407-1.249 10.341 2.482 10.86 7.751-.099-.822-1.113-1.279-1.579-1.165-.228.563-.617 1.287-1.243 1.736a4.85 4.85 0 0 0-.076-1.523 4.926 4.926 0 0 1-.946 1.919c-.724.053-1.449-.297-1.83-.822-.031-.023-.038-.069-.061-.099-.023-.054-.046-.107-.061-.16a.656.656 0 0 1-.046-.16c-.007-.054-.007-.107-.007-.168v-.114c.007-.053.022-.107.038-.16.015-.053.03-.106.053-.16.031-.053.053-.106.092-.16.129-.365.129-.662-.107-.837a.798.798 0 0 0-.145-.076c-.031-.008-.069-.023-.099-.031-.023-.007-.038-.015-.061-.023-.054-.015-.107-.03-.16-.038a.596.596 0 0 0-.161-.023 1.345 1.345 0 0 0-.167-.015c-.038 0-.077.008-.115.008a.573.573 0 0 0-.168.023 1.152 1.152 0 0 0-.32.083l-.152.069c-.046.023-.092.053-.145.076-1.777 1.157-.717 3.868.495 4.652-.457.084-.922.183-1.052.282l-.015.015c.328.198.671.366 1.029.511.488.159 1.007.304 1.236.365v.008a7.41 7.41 0 0 0 1.922.137c3.378-.236 6.146-2.802 6.65-6.183l.046.198c.022.137.053.282.068.426v.008c.015.068.023.137.031.198v.03c.007.069.015.137.015.198.008.084.015.168.015.252v.121c0 .038.008.084.008.122 0 .046-.008.092-.008.137v.107c0 .053-.007.099-.007.152 0 .031 0 .061-.008.099 0 .053-.008.107-.008.168-.007.023-.007.045-.007.068-.008.061-.016.114-.023.175 0 .023 0 .046-.008.069-.007.076-.023.145-.03.221v.015c-.016.068-.031.145-.046.213v.023l-.046.206c0 .007-.008.022-.008.03-.015.069-.03.137-.053.206v.022c-.023.077-.046.145-.061.214-.008.007-.008.015-.008.015l-.068.228c-.031.076-.054.145-.084.221-.031.076-.053.152-.084.221-.03.076-.061.145-.091.221h-.008c-.031.068-.061.144-.099.213-.008.023-.016.038-.023.053-.008.008-.008.015-.015.023a7.218 7.218 0 0 1-2.143 2.559 2.556 2.556 0 0 0-.183.129c-.016.015-.039.023-.054.038a3.058 3.058 0 0 1-.168.114l.023.046h.008l.32-.046h.008c.198-.03.396-.068.595-.106.053-.008.114-.023.167-.038.039-.008.069-.016.107-.023.054-.008.107-.023.16-.031.046-.015.092-.023.138-.038a14.499 14.499 0 0 0 2.211-.731 12.203 12.203 0 0 1-4.736 3.861 12.56 12.56 0 0 0 2.601-.45 12.181 12.181 0 0 0 7.207-5.748 12.137 12.137 0 0 1-2.052 4.896 12.025 12.025 0 0 0 2.037-1.691 12.061 12.061 0 0 0 3.21-6.472c.26 1.203.336 2.444.221 3.67 5.507-7.667.458-15.617-1.654-17.711-.008-.015-.016-.023-.016-.038-.007.008-.007.008-.007.015 0-.007 0-.007-.008-.015 0 .092-.008.183-.015.274-.023.175-.046.343-.076.51-.039.168-.084.335-.13.503-.053.16-.114.327-.183.487a6.446 6.446 0 0 1-.229.465 6.072 6.072 0 0 1-.587.845 5.941 5.941 0 0 1-.359.381c-.076.068-.144.129-.221.19l-.175.152a4.16 4.16 0 0 1-.427.297 5.18 5.18 0 0 1-.45.259c-.16.076-.321.145-.481.213-.16.061-.328.115-.495.16a6.347 6.347 0 0 1-.511.115c-.176.03-.351.045-.519.06-.122.008-.244.016-.366.016-.175 0-.351-.016-.519-.031a3.848 3.848 0 0 1-.518-.076 3.821 3.821 0 0 1-.511-.129h-.008c.168-.016.336-.031.504-.061a5.658 5.658 0 0 0 1.006-.274c.168-.061.328-.138.481-.214.16-.076.305-.16.457-.251.145-.099.29-.198.427-.304a4.11 4.11 0 0 0 .389-.343c.13-.114.244-.244.359-.373.114-.137.221-.274.32-.411.015-.023.031-.054.046-.077a5.274 5.274 0 0 0 .633-1.317c.053-.16.091-.327.129-.495.031-.175.061-.342.077-.51.015-.175.03-.35.03-.518a5.567 5.567 0 0 0-.076-.875 6.019 6.019 0 0 0-.114-.511c-.054-.159-.107-.327-.168-.487a5.012 5.012 0 0 0-.214-.472c-.084-.152-.168-.304-.259-.449a8.013 8.013 0 0 0-.305-.419 15.38 15.38 0 0 0-.351-.388 5.191 5.191 0 0 0-.198-.191 14.407 14.407 0 0 0-1.06-.746 1.553 1.553 0 0 0-.153-.076 2.959 2.959 0 0 0-.724-.32Z" fill="#fff"/><path d="M398.673 427.395c.224-.106.435-.171.633-.211.488-.079.765-.145.844-.197a.612.612 0 0 0 .264-.29c.053-.185.079-.566.079-1.172v-1.146l.013-.935-.039-1.396v-.829c0-.553-.04-1.014-.132-1.357-.027-.131-.145-.263-.33-.395-.251-.184-.66-.355-1.253-.526l-.013-.632c.105-.027.211-.053.303-.066.092-.013.448-.106 1.068-.264a9.64 9.64 0 0 0 .937-.368c.053-.027.119-.066.224-.119.106-.092.224-.171.356-.263.264-.185.58-.514.95-.961l.699-.053-.027 1.488c-.013.145-.013.263-.013.355 0 .079 0 .277.013.606.739-.632 1.398-1.066 2.005-1.317.778-.329 1.53-.487 2.229-.487.831 0 1.57.211 2.19.619.633.408 1.042.882 1.226 1.409.198.54.29 1.633.29 3.253l-.052 4.319c0 .197.039.369.105.5.092.066.343.132.739.198l.646.118c.079.119.119.25.119.422 0 .105 0 .25-.014.434l-2.598-.184-.765.026h-.607l-1.754.132h-.448c-.013-.119-.013-.198-.013-.264 0-.158.013-.329.026-.513.119-.026.435-.066.923-.132.132-.013.277-.052.449-.092.171-.066.277-.145.303-.211.066-.158.106-.434.106-.856 0-.75-.014-1.316-.027-1.711l.013-1.528c0-1.87-.105-3.029-.343-3.476-.342-.672-.844-1.001-1.516-1.001-.488 0-1.003.131-1.53.382-.541.25-1.082.632-1.649 1.145l-.026.224.026.83-.013.882.053 2.12-.027.329c0 1.436.053 2.252.172 2.436.119.185.554.382 1.319.606.026.145.039.264.039.329 0 .106-.039.264-.092.488-.277.013-.514.013-.699.013a7.31 7.31 0 0 1-.871-.079l-1.411-.026c-.712 0-1.728.026-3.06.092a.698.698 0 0 1-.052-.277c0-.066 0-.211.013-.421ZM414.249 421.062c.237-.751.435-1.251.62-1.488.488-.724 1.015-1.291 1.569-1.699.567-.408 1.069-.671 1.517-.803.594-.171 1.055-.25 1.424-.25.831 0 1.504.065 2.005.197.515.119.95.303 1.293.54a6.84 6.84 0 0 1 1.187 1.04c.303.356.541.777.725 1.251.198.474.304 1.054.33 1.725l-1.477-.026c-.409 0-1.293-.039-2.678-.118-.514-.027-.857-.053-1.055-.053-.066 0-.541.013-1.424.013h-1.148c-.013.132-.026.237-.026.316 0 .474.066.961.171 1.488.119.514.291.961.515 1.356.237.396.514.725.857 1.001.343.29.699.488 1.055.619l.765.25c.686 0 1.134-.026 1.372-.065a6.606 6.606 0 0 0 1.108-.33c.329-.145.712-.382 1.174-.711.316.237.58.435.804.632-.778.843-1.596 1.475-2.427 1.857-.831.382-1.767.566-2.796.566-.699 0-1.266-.052-1.714-.184a5.168 5.168 0 0 1-1.596-.724 5.116 5.116 0 0 1-1.227-1.212 5.797 5.797 0 0 1-.778-1.501c-.211-.672-.33-1.211-.33-1.607 0-.776.066-1.461.185-2.08Zm7.702-.566a4.016 4.016 0 0 0-.29-1.423 2.18 2.18 0 0 0-.87-1.04c-.383-.25-.778-.382-1.174-.382-.594 0-1.121.264-1.609.777-.475.527-.739 1.225-.805 2.12l3.021.013c.197 0 .474-.013.817-.039a6.77 6.77 0 0 1 .554-.04c.079 0 .198 0 .356.014ZM427.016 424.367c.263-.053.461-.079.58-.079.066 0 .158 0 .277.013l.119.131c.488.843.791 1.344.949 1.528.304.355.607.645.91.869.198.132.515.29.95.435.29.105.607.158.936.158.554 0 1.029-.172 1.425-.527.396-.369.593-.751.593-1.172a1.17 1.17 0 0 0-.224-.711c-.145-.198-.448-.395-.897-.593-.224-.092-.778-.25-1.675-.474-.883-.224-1.411-.369-1.596-.434a3.58 3.58 0 0 1-1.108-.659 2.996 2.996 0 0 1-.738-.961c-.224-.501-.343-.935-.343-1.291 0-.671.105-1.211.29-1.646a3.65 3.65 0 0 1 .831-1.132c.251-.25.633-.474 1.147-.672a4.668 4.668 0 0 1 1.662-.303c.844 0 1.583.053 2.216.172.633.118 1.174.289 1.609.513.066.198.132.672.238 1.396.092.737.145 1.172.145 1.304a.533.533 0 0 1-.04.197c-.237.066-.422.106-.58.106-.079 0-.211-.014-.383-.027-.079-.118-.184-.316-.316-.553-.422-.79-.858-1.343-1.306-1.659-.448-.329-.95-.487-1.543-.487-.607 0-1.121.184-1.53.526-.303.264-.448.606-.448 1.054 0 .29.158.579.474.882.304.303.844.54 1.609.698 1.161.25 2.018.514 2.559.764.791.369 1.359.816 1.675 1.317.317.5.488 1.08.488 1.738 0 1.027-.396 1.883-1.174 2.568-.765.671-1.886 1.014-3.376 1.014-.185 0-.699-.04-1.517-.132a9.2 9.2 0 0 1-1.306-.263c-.132-.04-.448-.158-.976-.382a.744.744 0 0 1-.211-.185c-.026-.079-.092-.447-.171-1.106-.132-1.08-.211-1.725-.224-1.935ZM437.884 418.045c1.042-.434 1.794-.869 2.256-1.29.474-.422.962-1.12 1.49-2.068h.752c.079.237.119.474.119.725 0 .46-.014.816-.014 1.079l-.039.777c0 .04 0 .145.013.303l.303.013c.04 0 .462-.013 1.24-.052.066 0 .396-.014.989-.027.053.237.093.448.093.632 0 .211-.04.448-.106.711-.29.04-.501.053-.659.053-.066 0-.211 0-.422-.026h-.686l-.238-.013-.633.026-.026 5.057c-.013.974 0 1.593.053 1.83.052.25.158.474.316.698.198.092.422.145.673.145.237 0 .409-.027.527-.066.119-.053.317-.171.581-.382.053-.053.145-.105.25-.184.211.158.396.329.528.5l.053.158a3.215 3.215 0 0 1-1.319 1.146 3.935 3.935 0 0 1-1.781.408c-.831 0-1.49-.263-2.005-.777-.514-.527-.764-1.33-.764-2.423l.052-2.318v-3.779l-.409-.013-.962.013-.172-.039a.385.385 0 0 1-.079-.224c0-.053.013-.25.026-.593ZM609.592 427.259c-.248-.752-.896-1.275-1.734-1.401-.396-.059-.849-.034-1.384.077-.934.193-1.627.267-2.132.281 1.908-3.232 3.46-6.918 4.353-10.387 1.445-5.61.673-8.165-.229-9.321-2.388-3.06-5.871-4.703-10.073-4.754-2.241-.027-4.209.417-5.236.736a19.388 19.388 0 0 0-3.062-.281c-2.021-.032-3.807.409-5.333 1.318a24.143 24.143 0 0 0-3.766-.948c-3.683-.607-6.652-.134-8.823 1.404-2.629 1.863-3.847 5.099-3.622 9.619.071 1.435.872 5.801 2.132 9.942.724 2.38 1.497 4.357 2.296 5.875 1.132 2.153 2.345 3.422 3.706 3.877.763.255 2.148.433 3.606-.784.185.224.431.447.759.654.415.263.923.478 1.43.605 1.829.459 3.542.344 5.003-.299.009.261.016.51.022.725.01.349.019.691.032 1.011.086 2.163.233 3.844.668 5.021.024.065.056.163.09.268.216.666.579 1.781 1.502 2.654.955.904 2.111 1.182 3.169 1.182.531 0 1.037-.07 1.481-.166 1.584-.34 3.382-.859 4.683-2.716 1.229-1.757 1.827-4.402 1.935-8.57l.04-.337.026-.221.289.026.075.005c1.613.074 3.584-.269 4.795-.834.957-.445 4.024-2.069 3.302-4.261" fill="#fff"/><path d="M607.149 427.943c-4.813.996-5.144-.638-5.144-.638 5.081-7.563 7.206-17.162 5.372-19.511-5.001-6.408-13.658-3.378-13.802-3.299l-.047.009a17.137 17.137 0 0 0-3.211-.336c-2.177-.036-3.829.573-5.083 1.526 0 0-15.443-6.381-14.725 8.025.153 3.064 4.38 23.188 9.422 17.11 1.843-2.223 3.623-4.102 3.623-4.102.884.589 1.943.89 3.053.782l.086-.074a3.34 3.34 0 0 0 .035.866c-1.299 1.455-.918 1.711-3.514 2.247-2.627.543-1.084 1.509-.076 1.762 1.221.306 4.048.74 5.957-1.941l-.076.306c.509.409.866 2.659.807 4.699-.06 2.04-.1 3.441.301 4.535.401 1.093.8 3.555 4.213 2.821 2.852-.613 4.33-2.201 4.536-4.851.146-1.884.476-1.605.497-3.289l.265-.798c.305-2.553.048-3.377 1.805-2.994l.427.038c1.294.059 2.986-.209 3.98-.672 2.139-.995 3.408-2.658 1.298-2.221h.001" fill="#fff"/><path d="M586.01 414.992c-.479-.061-.914-.004-1.134.149a.384.384 0 0 0-.172.255c-.027.183.111.385.196.489.241.294.593.497.942.541.05.007.1.01.15.01.581 0 1.109-.417 1.156-.725.058-.386-.549-.643-1.138-.719M599.895 414.873c-.04-.351-.553-.451-1.039-.368-.486.082-.957.349-.917.701.031.273.436.74.916.74a.73.73 0 0 0 .123-.011c.32-.054.555-.301.667-.444.17-.218.268-.46.25-.618" fill="#10CBBF"/><path fill-rule="evenodd" clip-rule="evenodd" d="M606.933 427.255c.976-.201 1.563-.024 1.746.528.352 1.066-1.591 2.293-2.668 2.793-.959.444-2.488.726-3.813.726-.635 0-1.223-.065-1.679-.208-.217 1.988-.676 5.693-.944 7.245-.501 2.903-1.796 4.22-4.776 4.859a6.615 6.615 0 0 1-1.388.157c-2.856.001-3.761-2.259-4.131-3.184-.452-1.13-.609-4.837-.577-8.599-1.03.931-2.32 1.412-3.785 1.412a7.799 7.799 0 0 1-1.89-.245c-.188-.047-1.839-.49-1.817-1.545.02-.966 1.398-1.25 1.917-1.357h.001c1.824-.376 1.942-.525 2.509-1.245.115-.145.249-.316.414-.51l-.002-.017v-.001l-.004-.047a5.251 5.251 0 0 1-2.346-.63 85.492 85.492 0 0 0-3.261 3.688c-.862 1.036-1.69 1.34-2.366 1.34-.276 0-.526-.05-.742-.123-1.853-.617-3.613-3.619-5.232-8.923-1.231-4.029-2.01-8.236-2.079-9.604-.203-4.065.846-6.942 3.119-8.552 1.905-1.349 4.575-1.759 7.934-1.218 1.943.313 3.532.858 4.147 1.087 1.415-.965 3.125-1.438 5.103-1.406 1.078.017 2.069.156 2.977.382.432-.19 2.658-.864 5.292-.834 3.832.041 6.998 1.518 9.155 4.274.535.683.794 1.802.771 3.324-.021 1.387-.283 3.089-.757 4.921-.999 3.869-2.852 8.015-5.105 11.445.341.251 1.379.665 4.277.067Zm-5.529-11.227c.085-.556.166-1.089.176-1.676-2.343-.29-3.276.249-3.644.775-1.234 1.764 1.177 6.087 2.207 7.933.265.475.456.818.544 1.031.098.236.204.449.314.645.708-1.507.525-3.034.347-4.517-.088-.735-.179-1.494-.156-2.225.024-.749.119-1.367.211-1.964l.001-.002Zm-2.664-11.617c3.434.076 6.15 1.36 8.073 3.816 1.475 1.884-.149 10.457-4.851 17.853a15.942 15.942 0 0 0-.143-.18l-.059-.074c1.215-2.006.977-3.99.766-5.75-.087-.722-.169-1.404-.148-2.044.021-.679.111-1.26.198-1.823v-.002c.107-.694.215-1.412.185-2.258a.913.913 0 0 0 .02-.318c-.076-.812-1.003-3.241-2.893-5.44-1.033-1.202-2.541-2.548-4.599-3.456a15.546 15.546 0 0 1 3.451-.324Zm-21.034 26.757c.215.072.871.29 1.821-.851a86.927 86.927 0 0 1 3.182-3.608 5.808 5.808 0 0 1-.421-.397c-1.303-1.359-1.896-3.242-1.627-5.165.289-2.07.181-3.898.123-4.88-.016-.269-.028-.464-.027-.601-.009-.357-.089-6.197 3.297-9.614l.049-.049h.001a1.38 1.38 0 0 0 .039-.038c-2.063-.672-7.197-1.997-10.32.217-1.919 1.36-2.8 3.892-2.618 7.524.057 1.149.784 5.244 2.028 9.318 1.437 4.707 3.067 7.675 4.473 8.144Zm5.439-5.675c-1.05-1.096-1.527-2.62-1.309-4.181.306-2.187.193-4.091.133-5.114v-.001l-.002-.026a21.208 21.208 0 0 1-.019-.342c.495-.438 2.787-1.666 4.421-1.291.746.171 1.201.678 1.39 1.552.978 4.521.129 6.405-.553 7.919v.001c-.14.312-.273.606-.386.912l-.088.235-.002.004c-.221.595-.428 1.148-.556 1.673-1.116-.003-2.203-.48-3.029-1.341Zm-.62 5.755c.172.117.466.259.792.34 1.582.396 3.786.423 5.298-1.694.179-.25.125-.573.076-.743-.103-.359-.357-.686-.618-.794-.322-.134-.5-.207-.888.227-.259.289-.446.527-.612.737l-.003.004c-.724.918-1.055 1.23-3.202 1.672-.443.091-.699.183-.843.251Zm12.025 10.79c-2.626.562-3.556-.777-4.169-2.308-.395-.989-.589-5.446-.452-10.369a.585.585 0 0 0-.025-.188 2.457 2.457 0 0 0-.074-.348c-.205-.716-.704-1.315-1.304-1.564-.238-.098-.675-.279-1.201-.145.112-.461.307-.982.517-1.546l.089-.238c.099-.267.224-.545.356-.838.714-1.584 1.691-3.754.63-8.657-.397-1.836-1.723-2.733-3.734-2.525-1.206.125-2.309.611-2.859.89-.118.06-.226.118-.327.174.153-1.85.733-5.308 2.903-7.495 1.366-1.377 3.186-2.058 5.403-2.021 4.368.072 7.169 2.312 8.75 4.179 1.362 1.61 2.099 3.23 2.394 4.104-2.214-.225-3.72.212-4.483 1.303-1.66 2.373.909 6.978 2.143 9.191.227.406.422.756.483.905.403.974.923 1.624 1.303 2.099l.002.003c.116.144.228.284.314.407-.671.193-1.875.639-1.766 2.871-.088 1.12-.718 6.362-1.037 8.214-.422 2.447-1.323 3.359-3.856 3.902Zm8.038-11.931c1.09-.051 2.238-.29 2.923-.608.798-.37 1.36-.782 1.688-1.089l-.026.005c-2.437.503-4.163.434-5.13-.205a1.738 1.738 0 0 1-.166-.121c-.079.027-.16.05-.244.074l-.008.002c-.548.154-1.065.299-.998 1.69.144.117.757.308 1.961.252Z" fill="#11CCBF"/><g clip-path="url(#d)"><path d="M524.859 449.943c-10.627-.073-19.867-8.893-19.796-20.098.069-10.782 9.029-19.86 20.115-19.786 10.775.072 19.866 9.015 19.769 19.972.089 10.858-9.046 19.989-20.088 19.912Zm0 0c-10.627-.073-19.867-8.893-19.796-20.098.069-10.782 9.029-19.86 20.115-19.786 10.775.072 19.866 9.015 19.769 19.972.089 10.858-9.046 19.989-20.088 19.912Z" fill="#fff"/><path d="M524.878 447.295c-9.216-.064-17.228-7.712-17.166-17.429.06-9.35 7.829-17.222 17.443-17.158 9.344.062 17.227 7.818 17.144 17.319.077 9.416-7.845 17.334-17.421 17.268Zm0 0c-9.216-.064-17.228-7.712-17.166-17.429.06-9.35 7.829-17.222 17.443-17.158 9.344.062 17.227 7.818 17.144 17.319.077 9.416-7.845 17.334-17.421 17.268Z" fill="#fff"/><path d="M531.444 429.994c-.044.824-.764 1.509-1.474 1.389h-.01a1.423 1.423 0 0 1-1.425-1.421 1.446 1.446 0 0 1 1.469-1.396c.786.004 1.483.668 1.44 1.428Zm-12.639 7.987c.296.009.593.003.934.003v2.147c-2.124.36-3.874-.244-4.303-2.039a11.91 11.91 0 0 1-.271-2.008c-.045-.715.034-1.439-.021-2.153-.151-1.965-.405-2.636-2.291-2.729v-2.445c.135-.032.272-.055.41-.071 1.034-.05 1.47-.367 1.701-1.386.105-.572.167-1.151.186-1.733.082-1.124.053-2.267.24-3.373.271-1.6 1.264-2.377 2.904-2.464.467-.025.935-.003 1.464-.003v2.195c-.218.015-.417.047-.615.041-1.337-.041-1.406.414-1.504 1.521-.061.694.023 1.4-.024 2.096a16.69 16.69 0 0 1-.277 2.064c-.193.987-.8 1.722-1.642 2.345 1.634 1.063 1.819 2.715 1.926 4.392.057.901.03 1.809.122 2.705.071.696.342.874 1.061.895Zm1.376-9.415h.026a1.415 1.415 0 0 1 1.388 1.514 1.385 1.385 0 0 1-1.461 1.303c-.031 0-.062 0-.092-.002a1.409 1.409 0 1 1 .139-2.815Zm4.867 0c.854-.007 1.421.547 1.426 1.391.005.867-.533 1.422-1.382 1.426-.863.004-1.431-.542-1.436-1.382a1.351 1.351 0 0 1 1.392-1.435Zm10.189-1.07c.228.849.67 1.147 1.563 1.188.147.007.292.032.493.054v2.445c-.108.035-.22.062-.333.079-1.197.075-1.743.566-1.864 1.766-.077.767-.071 1.542-.124 2.311a19.52 19.52 0 0 1-.23 2.52c-.305 1.512-1.249 2.266-2.808 2.359-.502.029-1.008.004-1.549.004v-2.185c.291-.018.548-.043.806-.049.932-.022 1.261-.323 1.307-1.248.05-1.017.072-2.035.118-3.052.066-1.469.468-2.782 1.837-3.699-.783-.559-1.412-1.235-1.575-2.148-.197-1.105-.261-2.235-.367-3.357-.052-.56-.05-1.126-.104-1.686-.059-.604-.475-.813-1.025-.827-.315-.008-.632-.002-1.035-.002v-2.133c2.572-.427 4.349.428 4.514 2.889.069 1.034.059 2.072.125 3.105.029.563.113 1.121.251 1.666Z" fill="#11CCBF"/></g><path fill-rule="evenodd" clip-rule="evenodd" d="M225.726 425.475a1.496 1.496 0 0 0 .012 1.585l5.548 8.738a1.5 1.5 0 0 0 1.698.632l16.009-4.795a1.497 1.497 0 0 0 .931-2.062l-10.291-22.289c-.502-1.087-2.015-1.176-2.642-.156l-11.265 18.347Zm13.633-13.095c-.218-.506-.959-.428-1.068.112l-3.962 19.697a.563.563 0 0 0 .713.649l11.061-3.297a.56.56 0 0 0 .355-.761l-7.099-16.4ZM259.654 421.401h.975c.911 0 1.592-.179 2.045-.539.453-.359.679-.883.679-1.57 0-.693-.19-1.205-.569-1.536-.379-.331-.973-.496-1.783-.496h-1.347v4.141Zm6.691-2.216c0 1.502-.47 2.65-1.41 3.445-.94.796-2.276 1.193-4.009 1.193h-1.272v4.963h-2.963v-13.952h4.464c1.695 0 2.984.364 3.866 1.092.883.729 1.324 1.815 1.324 3.259ZM274.202 417.914c.395 0 .723.029.984.086l-.219 2.729a3.38 3.38 0 0 0-.861-.095c-.93 0-1.655.239-2.175.716-.519.477-.778 1.145-.778 2.004v5.43h-2.916v-10.669h2.208l.431 1.794h.143a4.012 4.012 0 0 1 1.343-1.446 3.314 3.314 0 0 1 1.84-.549M276.723 428.785h2.916v-10.669h-2.916v10.669Zm-.123-13.427c0-.948.529-1.422 1.586-1.422 1.058 0 1.587.474 1.587 1.422 0 .452-.132.803-.397 1.054-.264.252-.661.377-1.19.377-1.057 0-1.586-.477-1.586-1.431ZM289.916 425.616c0 1.094-.381 1.927-1.143 2.5-.761.573-1.9.859-3.417.859-.777 0-1.44-.053-1.988-.158a7.57 7.57 0 0 1-1.539-.462v-2.405c.542.254 1.152.467 1.831.639.678.172 1.276.258 1.792.258 1.057 0 1.587-.306 1.587-.916a.768.768 0 0 0-.211-.559c-.14-.143-.382-.305-.726-.487a18.539 18.539 0 0 0-1.377-.634c-.821-.344-1.426-.662-1.811-.954-.386-.293-.666-.629-.841-1.007-.175-.379-.263-.845-.263-1.398 0-.948.368-1.681 1.104-2.2.736-.519 1.779-.778 3.13-.778 1.288 0 2.54.28 3.757.84l-.879 2.099a16.501 16.501 0 0 0-1.501-.563 4.728 4.728 0 0 0-1.424-.219c-.861 0-1.291.232-1.291.696 0 .262.139.487.416.678.277.191.884.474 1.821.85.835.337 1.447.652 1.835.944.389.293.676.63.861 1.012.184.382.277.837.277 1.365M301.459 428.784h-2.916v-6.232c0-.769-.129-1.347-.386-1.732-.259-.384-.665-.577-1.219-.577-.746 0-1.287.273-1.625.821-.338.547-.507 1.447-.507 2.701v5.019h-2.915v-10.669h2.227l.392 1.365h.163c.286-.49.701-.874 1.242-1.151.542-.276 1.163-.415 1.864-.415 1.599 0 2.683.522 3.25 1.566h.258c.287-.497.709-.882 1.266-1.155.558-.274 1.187-.411 1.888-.411 1.211 0 2.127.311 2.748.931.621.62.932 1.614.932 2.982v6.957h-2.925v-6.232c0-.769-.129-1.347-.387-1.732-.258-.384-.664-.577-1.219-.577-.713 0-1.247.255-1.601.763-.353.51-.53 1.317-.53 2.424v5.354ZM316.605 423.839l-1.128.038c-.847.026-1.478.179-1.892.459-.415.28-.622.706-.622 1.278 0 .821.472 1.231 1.415 1.231.675 0 1.216-.194 1.62-.582.405-.388.607-.903.607-1.546v-.878Zm.861 4.944-.564-1.451h-.077c-.491.617-.995 1.045-1.515 1.284-.519.238-1.196.358-2.031.358-1.026 0-1.833-.293-2.423-.878-.589-.586-.884-1.419-.884-2.501 0-1.132.397-1.967 1.19-2.505.794-.537 1.99-.835 3.589-.892l1.854-.057v-.468c0-1.081-.554-1.622-1.663-1.622-.854 0-1.857.257-3.011.773l-.965-1.966c1.23-.643 2.594-.964 4.091-.964 1.434 0 2.533.312 3.298.935.764.624 1.147 1.571 1.147 2.844v7.11h-2.036Z" fill="#fff"/><path d="m319.753 151.474-74.168 42.798 74.168 42.798 74.169-42.798-37.084-21.399-37.085-21.399ZM486.824 221.833l-92.902 53.637 92.902 53.637 92.902-53.637-46.451-26.819-46.451-26.818Z" fill="#B7F4EE" stroke="#535BCB" stroke-width="1.634" stroke-linejoin="round"/><path d="m319.753 125.033-74.168 42.574 74.168 42.574 74.169-42.574-37.084-21.287-37.085-21.287ZM486.824 184.188l-92.902 53.637 92.902 53.637 92.902-53.637-46.451-26.818-46.451-26.819Z" fill="#B7F4EE" stroke="#535BCB" stroke-width="1.634" stroke-linejoin="round"/><path d="m319.753 87.388-74.168 42.799 74.168 42.798 74.169-42.798-37.084-21.399-37.085-21.4ZM486.824 141.614l-92.902 53.637 92.902 53.637 92.902-53.637-46.451-26.818-46.451-26.819Z" fill="#B7F4EE" stroke="#535BCB" stroke-width="1.634" stroke-linejoin="round"/><path d="m245.585 215.858 73.944 42.723v-85.447l-73.944-42.723v85.447Z" fill="url(#e)" stroke="#535BCB" stroke-width="1.634" stroke-linejoin="round"/><path d="m393.922 302.635 92.902 53.636V248.998l-92.902-53.637v107.274Z" fill="url(#f)" stroke="#535BCB" stroke-width="1.634" stroke-linejoin="round"/><path d="M393.922 215.858v-85.447l-74.393 42.723v85.447l74.393-42.723Z" fill="url(#g)" stroke="#535BCB" stroke-width="1.634" stroke-linejoin="round"/><path d="M579.726 302.645V195.371l-92.902 53.637v107.274l92.902-53.637Z" fill="url(#h)" stroke="#535BCB" stroke-width="1.634" stroke-linejoin="round"/><path d="m378.796 311.37-31.033 17.917 31.033 17.917 31.034-17.917-15.517-8.959-15.517-8.958Z" fill="#B7F4EE" stroke="#535BCB" stroke-width="1.634" stroke-linejoin="round"/><path d="m378.796 300.292-31.033 17.917 31.033 17.917 31.034-17.917-15.517-8.958-15.517-8.959Z" fill="#B7F4EE" stroke="#535BCB" stroke-width="1.634" stroke-linejoin="round"/><path d="m378.796 284.573-31.033 17.918 31.033 17.917 31.034-17.917-15.517-8.959-15.517-8.959Z" fill="#B7F4EE" stroke="#535BCB" stroke-width="1.634" stroke-linejoin="round"/><path d="m347.763 338.362 31.033 17.917v-35.834l-31.033-17.918v35.835Z" fill="url(#i)" stroke="#535BCB" stroke-width="1.634" stroke-linejoin="round"/><path d="M409.83 338.365v-35.834l-31.033 17.917v35.834l31.033-17.917Z" fill="url(#j)" stroke="#535BCB" stroke-width="1.634" stroke-linejoin="round"/><path d="M581.566 150.897a.817.817 0 0 0 0 1.157l5.205 5.205a.818.818 0 0 0 1.156-1.157l-4.626-4.627 4.626-4.626a.817.817 0 1 0-1.156-1.157l-5.205 5.205Zm60.312 1.157a.819.819 0 0 0 0-1.157l-5.205-5.205a.818.818 0 0 0-1.156 1.157l4.626 4.626-4.626 4.627a.817.817 0 1 0 1.156 1.157l5.205-5.205Zm-59.734.239H641.3v-1.636h-59.156v1.636Z" fill="#4C51BF"/><path d="M590.807 129.741a.818.818 0 0 0-.818.818v7.361a.818.818 0 1 0 1.636 0v-6.543h6.543a.818.818 0 0 0 0-1.636h-7.361Zm41.829 43.465a.817.817 0 0 0 .818-.817v-7.361a.818.818 0 1 0-1.636 0v6.543h-6.543a.818.818 0 0 0 0 1.635h7.361Zm-42.407-42.068 41.829 41.829 1.157-1.157-41.83-41.829-1.156 1.157Z" fill="#4C51BF"/><path d="M632.636 129.741c.452 0 .818.367.818.818v7.361a.818.818 0 1 1-1.636 0v-6.543h-6.543a.818.818 0 0 1 0-1.636h7.361Zm-41.829 43.465a.817.817 0 0 1-.818-.817v-7.361a.818.818 0 1 1 1.636 0v6.543h6.543a.818.818 0 0 1 0 1.635h-7.361Zm42.407-42.068-41.829 41.829-1.157-1.157 41.83-41.829 1.156 1.157Z" fill="#4C51BF"/><circle cx="612.17" cy="151.699" r="17.702" fill="#787DE7"/><path d="M612.3 121.319a.818.818 0 0 0-1.156 0l-5.205 5.205a.817.817 0 1 0 1.156 1.157l4.627-4.627 4.626 4.627a.819.819 0 0 0 1.157-1.157l-5.205-5.205Zm-1.156 60.312c.319.32.837.32 1.156 0l5.205-5.205a.817.817 0 1 0-1.157-1.156l-4.626 4.626-4.627-4.626a.816.816 0 0 0-1.156 0 .816.816 0 0 0 0 1.156l5.205 5.205Zm-.24-59.734v59.156h1.636v-59.156h-1.636Z" fill="#4C51BF"/><path d="m611.609 140.37-9.748 5.628 9.748 5.628 9.748-5.628-4.874-2.814-4.874-2.814Z" fill="#14CCC0" stroke="#535BCB" stroke-width="1.634" stroke-linejoin="round"/><path d="m601.861 157.406 9.748 5.628v-11.256l-9.748-5.628v11.256Z" fill="url(#k)" stroke="#535BCB" stroke-width="1.634" stroke-linejoin="round"/><path d="M621.357 157.406V146.15l-9.748 5.628v11.256l9.748-5.628Z" fill="url(#l)" stroke="#535BCB" stroke-width="1.634" stroke-linejoin="round"/><path d="M487.832 196.508c34.439.069 39.436-48.148 79.523-48.148" stroke="#4C51BF" stroke-width="1.662" stroke-linecap="round"/><ellipse rx="2.733" ry="2.545" transform="matrix(-1 0 0 1 487.181 196.088)" fill="#4C51BF"/><path d="M318.709 131.219c-31.668.065-36.263-45.025-73.124-45.025" stroke="#4C51BF" stroke-width="1.662" stroke-linecap="round"/><ellipse cx="319.308" cy="130.825" rx="2.513" ry="2.38" fill="#4C51BF"/><path d="M312.755 347.529c26.828.064 30.72-44.879 61.947-44.879" stroke="#4C51BF" stroke-width="1.662" stroke-linecap="round"/><circle r="2.241" transform="matrix(-1 0 0 1 376.221 302.501)" fill="#4C51BF"/><g clip-path="url(#m)" stroke="#4C51BF" stroke-width="1.636" stroke-linecap="round" stroke-linejoin="round"><path d="m230.049 87.537-4.631-4.63-4.631 4.63M225.418 82.906v10.42"/><path d="M235.131 90.305a5.788 5.788 0 0 0-2.767-10.871h-1.459a9.253 9.253 0 0 0-5.235-6.159 9.264 9.264 0 0 0-12.845 6.825 9.256 9.256 0 0 0 2.173 7.785"/><path d="m230.049 87.537-4.631-4.63-4.631 4.63"/></g><g clip-path="url(#n)" stroke="#4C51BF" stroke-width="1.636" stroke-linecap="round" stroke-linejoin="round"><path d="M284.787 333.067a2.913 2.913 0 1 1-.652-5.79 2.913 2.913 0 0 1 .652 5.79Z"/><path d="M277.647 333.871a1.598 1.598 0 0 1-.121 1.792l-.051.064a1.933 1.933 0 0 0-.412 1.429 1.945 1.945 0 0 0 2.149 1.714 1.941 1.941 0 0 0 1.301-.72l.052-.065a1.599 1.599 0 0 1 1.72-.516 1.607 1.607 0 0 1 1.129 1.348l.019.164a1.944 1.944 0 0 0 3.448.993 1.94 1.94 0 0 0 .411-1.428l-.01-.087a1.603 1.603 0 0 1 .878-1.574 1.61 1.61 0 0 1 .915-.215c.319.022.625.139.877.335l.064.052a1.959 1.959 0 0 0 1.43.412 1.941 1.941 0 0 0 1.649-1.394 1.945 1.945 0 0 0-.656-2.057l-.064-.051a1.6 1.6 0 0 1-.517-1.72 1.604 1.604 0 0 1 1.349-1.129l.164-.019a1.942 1.942 0 1 0-.435-3.859l-.087.009a1.597 1.597 0 0 1-1.575-.877 1.601 1.601 0 0 1 .121-1.792l.051-.065a1.929 1.929 0 0 0 .412-1.429 1.94 1.94 0 0 0-2.149-1.713 1.922 1.922 0 0 0-.722.23 1.96 1.96 0 0 0-.579.489l-.052.065a1.6 1.6 0 0 1-1.72.516l-.077.009a1.607 1.607 0 0 1-1.129-1.348l-.019-.164a1.938 1.938 0 0 0-2.147-1.712 1.938 1.938 0 0 0-1.712 2.147l.01.087a1.602 1.602 0 0 1-.801 1.565 1.6 1.6 0 0 1-1.792-.12l-.064-.051a1.944 1.944 0 0 0-2.152-.182 1.946 1.946 0 0 0-.761 2.641c.124.223.29.42.49.579l.064.051a1.609 1.609 0 0 1 .517 1.721l.008.077a1.6 1.6 0 0 1-1.348 1.129l-.164.018a1.943 1.943 0 0 0 .435 3.86l.087-.01a1.604 1.604 0 0 1 1.566.801v0Z"/></g><g clip-path="url(#o)" stroke="#4C51BF" stroke-width="1.636" stroke-linecap="round" stroke-linejoin="round"><path d="M298.173 347.793a2.018 2.018 0 0 1-.452-4.008 2.016 2.016 0 1 1 .452 4.008Z"/><path d="M293.23 348.351c.112.192.163.412.148.633a1.103 1.103 0 0 1-.231.608l-.036.044a1.358 1.358 0 0 0-.285.99 1.35 1.35 0 0 0 1.988 1.027c.154-.086.29-.201.401-.339l.035-.045a1.106 1.106 0 0 1 1.191-.357 1.105 1.105 0 0 1 .782.933l.012.114a1.343 1.343 0 0 0 1.487 1.185 1.347 1.347 0 0 0 1.185-1.487l-.006-.06a1.104 1.104 0 0 1 .607-1.09 1.114 1.114 0 0 1 1.241.084l.045.035a1.358 1.358 0 0 0 .989.286 1.34 1.34 0 0 0 .901-.499 1.345 1.345 0 0 0-.213-1.89l-.045-.036a1.115 1.115 0 0 1 .576-1.972l.114-.013a1.343 1.343 0 0 0 .687-2.387 1.339 1.339 0 0 0-.988-.285l-.061.007a1.117 1.117 0 0 1-1.09-.608 1.114 1.114 0 0 1 .084-1.241l.035-.044a1.357 1.357 0 0 0 .286-.99 1.345 1.345 0 0 0-2.389-.688l-.036.045a1.103 1.103 0 0 1-1.191.357l-.053.007a1.11 1.11 0 0 1-.782-.934l-.013-.113a1.342 1.342 0 0 0-1.486-1.186 1.347 1.347 0 0 0-1.185 1.487l.006.06a1.11 1.11 0 0 1-.554 1.084 1.104 1.104 0 0 1-1.241-.084l-.044-.035a1.354 1.354 0 0 0-.99-.285 1.344 1.344 0 0 0-.688 2.388l.045.036a1.108 1.108 0 0 1 .358 1.191l.006.053a1.109 1.109 0 0 1-.934.782l-.113.013a1.343 1.343 0 0 0-.688 2.387c.279.222.635.325.989.285l.06-.007a1.116 1.116 0 0 1 1.084.554v0Z"/></g><path d="M920.72-21.064 707.625 101.953 920.72 224.969l213.09-123.016-106.54-61.509-106.55-61.508Z" fill="url(#p)"/><path d="M-87.614 155.058-384.96 326.699-87.614 498.34l297.347-171.641-148.673-85.82-148.673-85.821Z" fill="url(#q)"/><path d="m762.972 47.95 14.554 8.404v16.805l-14.554 8.403-14.554-8.403V56.354l14.554-8.403Z" fill="url(#r)"/><path d="m-43.47 138.029 99.743 57.587V310.79l-99.744 57.587-99.744-57.587V195.616l99.744-57.587Z" fill="url(#s)"/></g><defs><linearGradient id="l" x1="616.483" y1="146.15" x2="616.483" y2="163.034" gradientUnits="userSpaceOnUse"><stop stop-color="#92EFE6"/><stop offset="1" stop-color="#B7F4EE" stop-opacity="0"/></linearGradient><linearGradient id="b" x1="-4.396" y1="-3.072" x2="848.411" y2="475.149" gradientUnits="userSpaceOnUse"><stop stop-color="#71E8DF"/><stop offset=".455" stop-color="#04C8BB"/><stop offset="1" stop-color="#109D93"/></linearGradient><linearGradient id="e" x1="282.557" y1="130.411" x2="282.557" y2="258.581" gradientUnits="userSpaceOnUse"><stop stop-color="#92EFE6"/><stop offset="1" stop-color="#B7F4EE" stop-opacity="0"/></linearGradient><linearGradient id="f" x1="440.373" y1="195.361" x2="440.373" y2="356.272" gradientUnits="userSpaceOnUse"><stop stop-color="#92EFE6"/><stop offset="1" stop-color="#B7F4EE" stop-opacity="0"/></linearGradient><linearGradient id="g" x1="356.726" y1="130.411" x2="356.726" y2="258.581" gradientUnits="userSpaceOnUse"><stop stop-color="#92EFE6"/><stop offset="1" stop-color="#B7F4EE" stop-opacity="0"/></linearGradient><linearGradient id="h" x1="533.275" y1="195.371" x2="533.275" y2="356.282" gradientUnits="userSpaceOnUse"><stop stop-color="#92EFE6"/><stop offset="1" stop-color="#B7F4EE" stop-opacity="0"/></linearGradient><linearGradient id="i" x1="363.28" y1="302.527" x2="363.28" y2="356.279" gradientUnits="userSpaceOnUse"><stop stop-color="#92EFE6"/><stop offset="1" stop-color="#B7F4EE" stop-opacity="0"/></linearGradient><linearGradient id="j" x1="394.313" y1="302.531" x2="394.313" y2="356.282" gradientUnits="userSpaceOnUse"><stop stop-color="#92EFE6"/><stop offset="1" stop-color="#B7F4EE" stop-opacity="0"/></linearGradient><linearGradient id="k" x1="606.735" y1="146.15" x2="606.735" y2="163.034" gradientUnits="userSpaceOnUse"><stop stop-color="#92EFE6"/><stop offset="1" stop-color="#B7F4EE" stop-opacity="0"/></linearGradient><linearGradient id="c" x1="1812.39" y1="687.025" x2="627.352" y2="8.169" gradientUnits="userSpaceOnUse"><stop stop-color="#fff" stop-opacity=".1"/><stop offset=".973" stop-color="#fff" stop-opacity="0"/></linearGradient><linearGradient id="p" x1="920.72" y1="-21.064" x2="920.72" y2="224.969" gradientUnits="userSpaceOnUse"><stop offset=".065" stop-color="#4247B8"/><stop offset=".638" stop-color="#4C51BF"/><stop offset="1" stop-color="#232662"/></linearGradient><linearGradient id="q" x1="-87.614" y1="155.058" x2="-87.614" y2="498.34" gradientUnits="userSpaceOnUse"><stop stop-color="#4C51BF"/><stop offset=".629" stop-color="#4C51BF"/><stop offset="1" stop-color="#232662"/></linearGradient><linearGradient id="r" x1="762.972" y1="47.951" x2="762.972" y2="81.562" gradientUnits="userSpaceOnUse"><stop stop-color="#787DE7"/><stop offset="1" stop-color="#5258E0" stop-opacity=".99"/></linearGradient><linearGradient id="s" x1="-43.471" y1="138.029" x2="-43.471" y2="368.377" gradientUnits="userSpaceOnUse"><stop stop-color="#787DE7"/><stop offset="1" stop-color="#5258E0" stop-opacity=".99"/></linearGradient><clipPath id="a"><path fill="#fff" d="M0 0h844v474H0z"/></clipPath><clipPath id="d"><path fill="#fff" transform="translate(505.062 410.057)" d="M0 0h39.885v39.885H0z"/></clipPath><clipPath id="m"><path fill="#fff" transform="translate(211.526 69.014)" d="M0 0h27.785v27.785H0z"/></clipPath><clipPath id="n"><path fill="#fff" transform="scale(-1 1) rotate(6.432 -2970.927 -2464.207)" d="M0 0h23.304v23.304H0z"/></clipPath><clipPath id="o"><path fill="#fff" transform="scale(-1 1) rotate(6.432 -3150.35 -2546.298)" d="M0 0h16.133v16.133H0z"/></clipPath></defs></svg>