<svg xmlns="http://www.w3.org/2000/svg" version="1.1" xmlns:xlink="http://www.w3.org/1999/xlink" xmlns:svgjs="http://svgjs.dev/svgjs" width="2000" height="1500" viewBox="0 0 2000 1500"><rect width="2000" height="1500" fill="#000000"></rect><g transform="matrix(0.75,0,0,0.75,249.090909090909,534.4772914467511)"><svg viewBox="0 0 396 114" data-background-color="#ffffff" preserveAspectRatio="xMidYMid meet" height="575" width="2000" xmlns="http://www.w3.org/2000/svg" xmlns:xlink="http://www.w3.org/1999/xlink"><g id="tight-bounds" transform="matrix(1,0,0,1,0.2400000000000091,-0.027040521575941057)"><svg viewBox="0 0 395.52 114.05385537637471" height="114.05385537637471" width="395.52"><g><svg viewBox="0 0 582.6784265164201 168.02366754863814" height="114.05385537637471" width="395.52"><g transform="matrix(1,0,0,1,187.15842651642026,43.485141167315184)"><svg viewBox="0 0 395.5199999999999 81.05338521400778" height="81.05338521400778" width="395.5199999999999"><g id="textblocktransform"><svg viewBox="0 0 395.5199999999999 81.05338521400778" height="81.05338521400778" width="395.5199999999999" id="textblock"><g><svg viewBox="0 0 395.5199999999999 81.05338521400778" height="81.05338521400778" width="395.5199999999999"><g transform="matrix(1,0,0,1,0,0)"><svg width="395.5199999999999" viewBox="1.51 -37.01 188.21 38.56999999999999" height="81.05338521400778" data-palette-color="#010c80"><path d="M24.12-26.17L24.12-26.17Q24.12-23.54 22.97-21 21.83-18.46 19.92-16.43 18.02-14.4 15.58-13.11 13.13-11.82 10.55-11.67L10.55-11.67Q10.5-10.79 10.47-9.45 10.45-8.11 10.3-6.64 10.16-5.18 9.89-3.71 9.62-2.25 9.11-1.07 8.59 0.1 7.79 0.83 6.98 1.56 5.81 1.56L5.81 1.56Q4.44 1.56 3.64 0.66 2.83-0.24 2.42-1.51 2-2.78 1.86-4.17 1.71-5.57 1.66-6.54L1.66-6.54Q1.56-7.96 1.54-9.33 1.51-10.69 1.51-12.11L1.51-12.11Q1.51-12.74 1.51-14.48 1.51-16.21 1.54-18.43 1.56-20.65 1.61-23.07 1.66-25.49 1.76-27.56 1.86-29.64 1.98-31.1 2.1-32.57 2.29-32.81L2.29-32.81Q2.34-32.86 2.59-33.03 2.83-33.2 3.13-33.37 3.42-33.54 3.66-33.69 3.91-33.84 4-33.89L4-33.89Q6.25-35.16 8.94-36.08 11.62-37.01 14.26-37.01L14.26-37.01Q16.5-37.01 18.33-36.11 20.17-35.21 21.46-33.72 22.75-32.23 23.44-30.25 24.12-28.27 24.12-26.17ZM15.67-25.05L15.67-25.05Q15.67-26.03 15.21-26.76 14.75-27.49 13.67-27.49L13.67-27.49Q12.74-27.49 11.82-27.12 10.89-26.76 10.11-26.37L10.11-26.37Q10.25-24.66 10.38-23.05 10.5-21.44 10.4-19.73L10.4-19.73Q11.18-20.12 12.11-20.63 13.04-21.14 13.82-21.78 14.6-22.41 15.14-23.22 15.67-24.02 15.67-25.05ZM46.68-13.96L46.68-13.96Q46.68-11.28 46.14-8.64 45.6-6.01 44.33-3.93 43.06-1.86 40.94-0.59 38.82 0.68 35.64 0.68L35.64 0.68Q32.52 0.68 30.42-0.56 28.32-1.81 27.07-3.86 25.83-5.91 25.31-8.5 24.8-11.08 24.8-13.77L24.8-13.77Q24.8-16.7 25.49-19.58L25.49-19.58Q25.63-20.36 26.05-21.75 26.46-23.14 27.12-24.49 27.78-25.83 28.64-26.81 29.49-27.78 30.52-27.78L30.52-27.78Q31.49-27.78 32.08-27.25 32.66-26.71 33.01-25.9 33.35-25.1 33.44-24.19 33.54-23.29 33.54-22.56L33.54-22.56Q33.54-21.44 33.37-20.36 33.2-19.29 33.01-18.21L33.01-18.21Q32.81-16.75 32.64-15.28 32.47-13.82 32.47-12.35L32.47-12.35Q32.47-11.62 32.54-10.72 32.61-9.81 32.91-8.98 33.2-8.15 33.74-7.59 34.27-7.03 35.25-7.03L35.25-7.03Q36.52-7.03 37.28-7.71 38.03-8.4 38.4-9.42 38.77-10.45 38.86-11.62 38.96-12.79 38.96-13.77L38.96-13.77Q38.96-15.92 38.67-17.99 38.38-20.07 38.13-22.22L38.13-22.22Q38.08-22.46 38.08-22.9L38.08-22.9Q38.08-23.63 38.33-24.37 38.57-25.1 39.01-25.68 39.45-26.27 40.09-26.64 40.72-27 41.5-27L41.5-27Q42.58-27 43.41-26.25 44.24-25.49 44.8-24.29 45.36-23.1 45.73-21.61 46.09-20.12 46.31-18.68 46.53-17.24 46.6-15.97 46.68-14.7 46.68-13.96ZM58.78-29.59L58.78-29.59Q58.78-26.95 58.56-24.29 58.34-21.63 58.34-18.95L58.34-18.95Q58.34-15.48 58.56-12.01 58.78-8.54 58.78-5.03L58.78-5.03Q58.78-4.15 58.69-3.05 58.59-1.95 58.22-1.03 57.86-0.1 57.12 0.54 56.39 1.17 55.17 1.17L55.17 1.17Q54 1.17 53.14 0.02 52.29-1.12 51.73-2.91 51.17-4.69 50.8-6.88 50.43-9.08 50.26-11.16 50.09-13.23 50.02-14.97 49.95-16.7 49.95-17.53L49.95-17.53Q49.95-18.46 50.02-20.21 50.09-21.97 50.34-24.02 50.58-26.07 51-28.2 51.41-30.32 52.09-32.06 52.78-33.79 53.73-34.89 54.68-35.99 56-35.99L56-35.99Q57.08-35.99 57.64-35.28 58.2-34.57 58.44-33.57 58.69-32.57 58.74-31.47 58.78-30.37 58.78-29.59ZM76.8-26.86L76.8-26.86Q76.8-25.44 75.85-24.76 74.89-24.07 73.72-23.46 72.55-22.85 71.6-22.02 70.65-21.19 70.65-19.53L70.65-19.53Q70.65-18.65 71.06-18.02 71.48-17.38 72.09-16.87 72.7-16.36 73.43-15.82 74.16-15.28 74.77-14.6 75.38-13.92 75.8-12.94 76.21-11.96 76.21-10.55L76.21-10.55Q76.21-8.5 75.16-6.52 74.11-4.54 72.48-3 70.84-1.46 68.79-0.54 66.74 0.39 64.74 0.39L64.74 0.39Q63.91 0.39 63.08 0.27 62.25 0.15 61.59-0.2 60.93-0.54 60.49-1.15 60.05-1.76 60.05-2.73L60.05-2.73Q60.05-4.1 60.59-4.86 61.13-5.62 61.96-6.05 62.79-6.49 63.74-6.74 64.69-6.98 65.52-7.35 66.35-7.71 66.89-8.3 67.42-8.89 67.42-9.96L67.42-9.96Q67.42-10.99 66.62-12.08 65.81-13.18 64.84-14.43 63.86-15.67 63.05-17.09 62.25-18.51 62.25-20.21L62.25-20.21Q62.25-22.31 63.1-24.1 63.96-25.88 65.4-27.2 66.84-28.52 68.69-29.27 70.55-30.03 72.6-30.03L72.6-30.03Q73.38-30.03 74.14-29.88 74.89-29.74 75.48-29.37 76.07-29 76.43-28.39 76.8-27.78 76.8-26.86ZM99.21-8.69L99.21-8.69Q99.21-7.03 98.16-5.44 97.11-3.86 95.52-2.61 93.94-1.37 92.13-0.61 90.32 0.15 88.81 0.15L88.81 0.15Q86.22 0.15 84.19-1.15 82.17-2.44 80.8-4.44 79.43-6.45 78.73-8.86 78.02-11.28 78.02-13.57L78.02-13.57Q78.02-16.02 78.7-18.8 79.38-21.58 80.78-23.93 82.17-26.27 84.29-27.83 86.42-29.39 89.35-29.39L89.35-29.39Q91.01-29.39 92.52-28.83 94.03-28.27 95.16-27.25 96.28-26.22 96.96-24.8 97.65-23.39 97.65-21.63L97.65-21.63Q97.65-19.34 96.67-17.33 95.69-15.33 94.08-13.87 92.47-12.4 90.37-11.5 88.27-10.6 86.07-10.5L86.07-10.5Q86.27-9.08 87.22-8.45 88.17-7.81 89.49-7.81L89.49-7.81Q90.47-7.81 91.4-8.3 92.32-8.79 93.2-9.4 94.08-10.01 94.94-10.5 95.79-10.99 96.67-10.99L96.67-10.99Q97.65-10.99 98.43-10.35 99.21-9.72 99.21-8.69ZM91.3-20.65L91.3-20.65Q91.3-21.29 90.96-21.97 90.62-22.66 89.88-22.66L89.88-22.66Q88.81-22.66 88.08-22.09 87.34-21.53 86.86-20.68 86.37-19.82 86.1-18.85 85.83-17.87 85.78-17.04L85.78-17.04Q86.46-17.19 87.42-17.43 88.37-17.68 89.22-18.09 90.08-18.51 90.69-19.14 91.3-19.78 91.3-20.65ZM134.07-33.35L134.07-33.35Q134.07-32.13 133.11-31.13 132.16-30.13 130.82-29.37 129.48-28.61 128.06-28.13 126.65-27.64 125.72-27.44L125.72-27.44Q125.33-23.68 125.11-19.95 124.89-16.21 124.89-12.45L124.89-12.45Q124.89-10.45 124.99-8.5 125.08-6.54 125.08-4.59L125.08-4.59Q125.08-3.71 124.91-2.66 124.74-1.61 124.33-0.68 123.91 0.24 123.18 0.88 122.45 1.51 121.37 1.51L121.37 1.51Q120.1 1.51 119.35 0.81 118.59 0.1 118.17-0.93 117.76-1.95 117.61-3.1 117.47-4.25 117.47-5.18L117.47-5.18Q117.37-8.11 117.32-11.06 117.27-14.01 117.27-16.99L117.27-16.99Q117.27-19.48 117.29-21.88 117.32-24.27 117.32-26.76L117.32-26.76Q116.64-26.66 115.93-26.61 115.22-26.56 114.49-26.56L114.49-26.56Q113.9-26.56 112.95-26.68 112-26.81 111.12-27.12 110.24-27.44 109.6-28 108.97-28.56 108.97-29.44L108.97-29.44Q108.97-30.91 110.12-32.01 111.26-33.11 113.05-33.91 114.83-34.72 117-35.28 119.17-35.84 121.3-36.16 123.42-36.47 125.2-36.62 126.99-36.77 127.96-36.77L127.96-36.77Q128.89-36.77 129.94-36.69 130.99-36.62 131.92-36.28 132.85-35.94 133.46-35.25 134.07-34.57 134.07-33.35ZM152.28-6.88L152.28-6.88Q152.28-6.01 152.2-4.59 152.13-3.17 151.79-1.83 151.45-0.49 150.71 0.49 149.98 1.46 148.66 1.46L148.66 1.46Q146.86 1.46 145.88 0.29 144.9-0.88 144.95-2.64L144.95-2.64Q143.39-1.27 141.41-0.49 139.44 0.29 137.38 0.29L137.38 0.29Q135.97 0.29 134.7-0.39 133.43-1.07 132.45-2.15 131.48-3.22 130.89-4.57 130.3-5.91 130.3-7.23L130.3-7.23Q130.3-9.57 131.75-11.33 133.19-13.09 135.29-14.33 137.38-15.58 139.75-16.31 142.12-17.04 143.98-17.29L143.98-17.29Q143.98-17.53 144-17.72 144.03-17.92 144.03-18.16L144.03-18.16Q144.03-19.68 143.2-20.61 142.37-21.53 140.85-21.53L140.85-21.53Q139.63-21.53 138.75-21.12 137.87-20.7 137.09-20.19 136.31-19.68 135.53-19.26 134.75-18.85 133.77-18.85L133.77-18.85Q132.7-18.85 131.94-19.53 131.18-20.21 131.18-21.29L131.18-21.29Q131.18-22.9 132.14-24.22 133.09-25.54 134.53-26.44 135.97-27.34 137.65-27.86 139.34-28.37 140.75-28.37L140.75-28.37Q142.07-28.37 143.39-28.05 144.71-27.73 145.88-27.08 147.05-26.42 148-25.46 148.96-24.51 149.54-23.24L149.54-23.24Q150.42-21.44 150.96-19.41 151.5-17.38 151.79-15.26 152.08-13.13 152.18-11.01 152.28-8.89 152.28-6.88ZM144.46-8.45L144.46-8.45 144.32-11.77Q144.22-11.77 144.12-11.79 144.03-11.82 143.93-11.82L143.93-11.82Q143.29-11.82 142.34-11.5 141.39-11.18 140.51-10.62 139.63-10.06 139.02-9.38 138.41-8.69 138.41-7.96L138.41-7.96Q138.41-7.28 138.9-7.03 139.39-6.79 140.02-6.79L140.02-6.79Q141.1-6.79 142.32-7.35 143.54-7.91 144.46-8.45ZM164.34-29.59L164.34-29.59Q164.34-26.95 164.12-24.29 163.9-21.63 163.9-18.95L163.9-18.95Q163.9-15.48 164.12-12.01 164.34-8.54 164.34-5.03L164.34-5.03Q164.34-4.15 164.24-3.05 164.14-1.95 163.77-1.03 163.41-0.1 162.68 0.54 161.94 1.17 160.72 1.17L160.72 1.17Q159.55 1.17 158.7 0.02 157.84-1.12 157.28-2.91 156.72-4.69 156.35-6.88 155.99-9.08 155.81-11.16 155.64-13.23 155.57-14.97 155.5-16.7 155.5-17.53L155.5-17.53Q155.5-18.46 155.57-20.21 155.64-21.97 155.89-24.02 156.13-26.07 156.55-28.2 156.96-30.32 157.65-32.06 158.33-33.79 159.28-34.89 160.23-35.99 161.55-35.99L161.55-35.99Q162.63-35.99 163.19-35.28 163.75-34.57 163.99-33.57 164.24-32.57 164.29-31.47 164.34-30.37 164.34-29.59ZM189.72-26.27L189.72-26.27Q189.72-24.9 189.02-23.49 188.31-22.07 187.31-20.68 186.31-19.29 185.21-18.04 184.11-16.8 183.28-15.77L183.28-15.77Q183.96-14.7 184.99-12.92 186.01-11.13 186.94-9.13 187.87-7.13 188.53-5.22 189.19-3.32 189.19-2.05L189.19-2.05Q189.19-1.03 188.55-0.17 187.92 0.68 186.79 0.68L186.79 0.68Q185.96 0.68 185.11-0.02 184.25-0.73 183.4-1.88 182.55-3.03 181.76-4.44 180.98-5.86 180.32-7.23 179.67-8.59 179.15-9.79 178.64-10.99 178.35-11.72L178.35-11.72Q177.71-11.08 177-10.67 176.3-10.25 175.61-9.72L175.61-9.72Q175.61-8.69 175.54-6.84 175.47-4.98 175.1-3.17 174.73-1.37 173.9-0.02 173.07 1.32 171.46 1.32L171.46 1.32Q170.19 1.32 169.51 0.17 168.83-0.98 168.51-2.51 168.19-4.05 168.14-5.64 168.09-7.23 168.09-8.06L168.09-8.06Q168.09-11.67 168.29-15.28 168.48-18.9 168.53-22.51L168.53-22.51Q168.53-23.34 168.56-24.68 168.58-26.03 168.73-27.59 168.87-29.15 169.17-30.76 169.46-32.37 170-33.67 170.53-34.96 171.39-35.77 172.24-36.57 173.46-36.57L173.46-36.57Q174.34-36.57 174.95-35.91 175.56-35.25 175.93-34.23 176.3-33.2 176.47-31.93 176.64-30.66 176.71-29.42 176.78-28.17 176.78-27.1 176.78-26.03 176.78-25.39L176.78-25.39Q176.78-24.95 176.76-24.1 176.74-23.24 176.71-22.31 176.69-21.39 176.69-20.61 176.69-19.82 176.78-19.48L176.78-19.48Q177.13-19.48 177.81-20.14 178.49-20.8 179.4-21.83 180.3-22.85 181.35-24 182.4-25.15 183.5-26.17 184.6-27.2 185.67-27.86 186.75-28.52 187.67-28.52L187.67-28.52Q188.65-28.52 189.19-27.83 189.72-27.15 189.72-26.27Z" opacity="1" transform="matrix(1,0,0,1,0,0)" fill="#ffffff" class="undefined-text-0" data-fill-palette-color="primary" id="text-0"></path></svg></g></svg></g></svg></g></svg></g><g><svg viewBox="0 0 168.02366754863817 168.02366754863814" height="168.02366754863814" width="168.02366754863817"><g><svg></svg></g><g id="icon-0"><svg viewBox="0 0 168.02366754863817 168.02366754863814" height="168.02366754863814" width="168.02366754863817"><g><path transform="scale(1.68024,1.68024)" d="M30 100c-16.569 0-30-13.431-30-30v-40c0-16.569 13.431-30 30-30h40c16.569 0 30 13.431 30 30v40c0 16.569-13.431 30-30 30z" fill="#ffffff" fill-rule="nonzero" stroke="none" stroke-width="1" stroke-linecap="butt" stroke-linejoin="miter" stroke-miterlimit="10" stroke-dasharray="" stroke-dashoffset="0" font-family="none" font-weight="none" font-size="none" text-anchor="none" style="mix-blend-mode: normal" data-fill-palette-color="accent"></path></g><g transform="matrix(1,0,0,1,33.604733509727666,33.60473350972763)"><svg viewBox="0 0 100.81420052918284 100.81420052918288" height="100.81420052918288" width="100.81420052918284"><g><svg xmlns="http://www.w3.org/2000/svg" xmlns:xlink="http://www.w3.org/1999/xlink" version="1.1" x="0" y="0" viewBox="11.026000000000003 11.026 77.94899999999998 77.94900000000001" enable-background="new 0 0 100 100" xml:space="preserve" height="100.81420052918288" width="100.81420052918284" class="icon-n$-0" data-fill-palette-color="quaternary" id="n$-0"><path d="M50 11.026c-21.525 0-38.974 17.449-38.974 38.974 0 12.283 5.688 23.232 14.567 30.376l-14.567 8.599H50c21.525 0 38.975-17.449 38.975-38.975C88.975 28.475 71.523 11.026 50 11.026zM72.952 56.297H60.504l-3.455-9.343-7.586 23.352L41.84 53.232l-0.762 2.175H28.296V51.85h10.258l2.886-8.241 7.499 16.795 7.892-24.296 6.152 16.631h9.97V56.297z" fill="#000000" data-fill-palette-color="quaternary"></path></svg></g></svg></g></svg></g></svg></g></svg></g><defs></defs></svg><rect width="395.52" height="114.05385537637471" fill="none" stroke="none" visibility="hidden"></rect></g></svg></g></svg>